<svg width="29" height="29" viewBox="0 0 29 29" fill="none" xmlns="http://www.w3.org/2000/svg">
<path d="M9.96694 26.9501H5.18109C2.80002 26.9501 1.65094 25.8484 1.65094 23.5739V4.85702C1.65094 2.58256 2.81186 1.48087 5.18109 1.48087H9.96694C12.348 1.48087 13.4971 2.58256 13.4971 4.85702V23.5739C13.4971 25.8484 12.3362 26.9501 9.96694 26.9501ZM5.18109 3.25779C3.67663 3.25779 3.42786 3.66056 3.42786 4.85702V23.5739C3.42786 24.7704 3.67663 25.1732 5.18109 25.1732H9.96694C11.4714 25.1732 11.7202 24.7704 11.7202 23.5739V4.85702C11.7202 3.66056 11.4714 3.25779 9.96694 3.25779H5.18109Z" fill="black"/>
<path d="M23.5894 16.2886H18.8035C16.4225 16.2886 15.2734 15.1869 15.2734 12.9124V4.85702C15.2734 2.58256 16.4343 1.48087 18.8035 1.48087H23.5894C25.9705 1.48087 27.1195 2.58256 27.1195 4.85702V12.9124C27.1195 15.1869 25.9586 16.2886 23.5894 16.2886ZM18.8035 3.25779C17.2991 3.25779 17.0503 3.66056 17.0503 4.85702V12.9124C17.0503 14.1089 17.2991 14.5116 18.8035 14.5116H23.5894C25.0938 14.5116 25.3426 14.1089 25.3426 12.9124V4.85702C25.3426 3.66056 25.0938 3.25779 23.5894 3.25779H18.8035Z" fill="black"/>
<path d="M23.5894 26.9495H18.8035C16.4225 26.9495 15.2734 25.8478 15.2734 23.5734V21.4411C15.2734 19.1666 16.4343 18.0649 18.8035 18.0649H23.5894C25.9705 18.0649 27.1195 19.1666 27.1195 21.4411V23.5734C27.1195 25.8478 25.9586 26.9495 23.5894 26.9495ZM18.8035 19.8418C17.2991 19.8418 17.0503 20.2446 17.0503 21.4411V23.5734C17.0503 24.7698 17.2991 25.1726 18.8035 25.1726H23.5894C25.0938 25.1726 25.3426 24.7698 25.3426 23.5734V21.4411C25.3426 20.2446 25.0938 19.8418 23.5894 19.8418H18.8035Z" fill="black"/>
</svg>
