<svg width="29" height="29" viewBox="0 0 29 29" fill="none" xmlns="http://www.w3.org/2000/svg">
<path d="M24.8772 26.9495H3.55411C3.06842 26.9495 2.66565 26.5467 2.66565 26.061C2.66565 25.5753 3.06842 25.1726 3.55411 25.1726H24.8772C25.3629 25.1726 25.7656 25.5753 25.7656 26.061C25.7656 26.5467 25.3629 26.9495 24.8772 26.9495Z" fill="black"/>
<path d="M6.63409 23.396H4.73873C3.6015 23.396 2.66565 22.4602 2.66565 21.323V11.1116C2.66565 9.97433 3.6015 9.03848 4.73873 9.03848H6.63409C7.77132 9.03848 8.70716 9.97433 8.70716 11.1116V21.323C8.70716 22.4602 7.77132 23.396 6.63409 23.396ZM4.73873 10.8035C4.57288 10.8035 4.44257 10.9339 4.44257 11.0997V21.323C4.44257 21.4888 4.57288 21.6191 4.73873 21.6191H6.63409C6.79993 21.6191 6.93024 21.4888 6.93024 21.323V11.1116C6.93024 10.9457 6.79993 10.8154 6.63409 10.8154H4.73873V10.8035Z" fill="black"/>
<path d="M15.163 23.3954H13.2676C12.1304 23.3954 11.1945 22.4596 11.1945 21.3224V7.33211C11.1945 6.19488 12.1304 5.25903 13.2676 5.25903H15.163C16.3002 5.25903 17.2361 6.19488 17.2361 7.33211V21.3224C17.2361 22.4596 16.3002 23.3954 15.163 23.3954ZM13.2676 7.03596C13.1017 7.03596 12.9714 7.16626 12.9714 7.33211V21.3224C12.9714 21.4882 13.1017 21.6185 13.2676 21.6185H15.163C15.3288 21.6185 15.4591 21.4882 15.4591 21.3224V7.33211C15.4591 7.16626 15.3288 7.03596 15.163 7.03596H13.2676Z" fill="black"/>
<path d="M23.6932 23.3963H21.7978C20.6606 23.3963 19.7247 22.4604 19.7247 21.3232V3.55397C19.7247 2.41674 20.6606 1.4809 21.7978 1.4809H23.6932C24.8304 1.4809 25.7663 2.41674 25.7663 3.55397V21.3232C25.7663 22.4604 24.8304 23.3963 23.6932 23.3963ZM21.7978 3.25782C21.632 3.25782 21.5017 3.38813 21.5017 3.55397V21.3232C21.5017 21.489 21.632 21.6194 21.7978 21.6194H23.6932C23.859 21.6194 23.9893 21.489 23.9893 21.3232V3.55397C23.9893 3.38813 23.859 3.25782 23.6932 3.25782H21.7978Z" fill="black"/>
</svg>
